<svg xmlns="http://www.w3.org/2000/svg" xmlns:xlink="http://www.w3.org/1999/xlink" contentStyleType="text/css" data-diagram-type="CLASS" height="744.9245px" preserveAspectRatio="none" style="width:980px;height:744px;background:#FFFFFF;" version="1.1" viewBox="0 0 980 744" width="980.4817px" zoomAndPan="magnify"><defs/><g><!--class users--><g class="entity" data-entity="users" data-source-line="15" data-uid="ent0002" id="entity_users"><rect fill="#FFFFFF" height="141.5818" rx="1.6778" ry="1.6778" style="stroke:#444444;stroke-width:0.3356;" width="142.5668" x="476.4832" y="8.0532"/><ellipse cx="532.2205" cy="18.7909" fill="#ADD1B2" rx="7.3821" ry="7.3821" style="stroke:#181818;stroke-width:0.6711;"/><path d="M534.9783,22.8175 L529.7983,22.8175 L529.7983,14.5021 L534.9783,14.5021 L534.9783,15.9492 L531.4446,15.9492 L531.4446,17.7423 L534.6428,17.7423 L534.6428,19.1894 L531.4446,19.1894 L531.4446,21.3704 L534.9783,21.3704 L534.9783,22.8175 Z " fill="#000000"/><text fill="#000000" font-family="sans-serif" font-size="9.3954" lengthAdjust="spacing" textLength="25.3879" x="545.9781" y="22.0435">users</text><line style="stroke:#444444;stroke-width:0.3356;" x1="477.1543" x2="618.379" y1="29.5285" y2="29.5285"/><ellipse cx="483.8654" cy="38.688" fill="#000000" rx="2.0133" ry="2.0133" style="stroke:#000000;stroke-width:0.6711;"/><text fill="#000000" font-family="sans-serif" font-size="9.3954" lengthAdjust="spacing" textLength="56.2717" x="489.9053" y="40.934">id : int &#171;PK&#187;</text><line style="stroke:#444444;stroke-width:0.6711;" x1="477.1543" x2="618.379" y1="45.8342" y2="45.8342"/><text fill="#000000" font-family="sans-serif" font-size="9.3954" lengthAdjust="spacing" textLength="124.9897" x="480.5099" y="57.2397">email : varchar(255) &#171;UQ&#187;</text><text fill="#000000" font-family="sans-serif" font-size="9.3954" lengthAdjust="spacing" textLength="96.9685" x="480.5099" y="68.1766">name : varchar(255)</text><text fill="#000000" font-family="sans-serif" font-size="9.3954" lengthAdjust="spacing" textLength="93.748" x="480.5099" y="79.1135">phone : varchar(50)</text><text fill="#000000" font-family="sans-serif" font-size="9.3954" lengthAdjust="spacing" textLength="79.4346" x="480.5099" y="90.0504">ktp : varchar(32)</text><text fill="#000000" font-family="sans-serif" font-size="9.3954" lengthAdjust="spacing" textLength="115.0942" x="480.5099" y="100.9873">password : varchar(255)</text><text fill="#000000" font-family="sans-serif" font-size="9.3954" lengthAdjust="spacing" textLength="111.97" x="480.5099" y="111.9241">profile_image : longtext</text><text fill="#000000" font-family="sans-serif" font-size="9.3954" lengthAdjust="spacing" textLength="134.5136" x="480.5099" y="122.861">role : enum('patient','nurse')</text><text fill="#000000" font-family="sans-serif" font-size="9.3954" lengthAdjust="spacing" textLength="109.9515" x="480.5099" y="133.7979">created_at : timestamp</text><text fill="#000000" font-family="sans-serif" font-size="9.3954" lengthAdjust="spacing" textLength="113.0252" x="480.5099" y="144.7348">updated_at : timestamp</text></g><!--class activities--><g class="entity" data-entity="activities" data-source-line="29" data-uid="ent0003" id="entity_activities"><rect fill="#FFFFFF" height="75.9605" rx="1.6778" ry="1.6778" style="stroke:#444444;stroke-width:0.3356;" width="147.5949" x="577.8198" y="224.8196"/><ellipse cx="627.5863" cy="235.5572" fill="#ADD1B2" rx="7.3821" ry="7.3821" style="stroke:#181818;stroke-width:0.6711;"/><path d="M630.3441,239.5838 L625.164,239.5838 L625.164,231.2684 L630.3441,231.2684 L630.3441,232.7155 L626.8103,232.7155 L626.8103,234.5086 L630.0086,234.5086 L630.0086,235.9557 L626.8103,235.9557 L626.8103,238.1368 L630.3441,238.1368 L630.3441,239.5838 Z " fill="#000000"/><text fill="#000000" font-family="sans-serif" font-size="9.3954" lengthAdjust="spacing" textLength="42.3575" x="641.3439" y="238.8098">activities</text><line style="stroke:#444444;stroke-width:0.3356;" x1="578.4909" x2="724.7436" y1="246.2949" y2="246.2949"/><ellipse cx="585.2019" cy="255.4544" fill="#000000" rx="2.0133" ry="2.0133" style="stroke:#000000;stroke-width:0.6711;"/><text fill="#000000" font-family="sans-serif" font-size="9.3954" lengthAdjust="spacing" textLength="56.2717" x="591.2419" y="257.7003">id : int &#171;PK&#187;</text><line style="stroke:#444444;stroke-width:0.6711;" x1="578.4909" x2="724.7436" y1="262.6006" y2="262.6006"/><text fill="#000000" font-family="sans-serif" font-size="9.3954" lengthAdjust="spacing" textLength="139.5416" x="581.8464" y="274.006">email : varchar(255) &#171;FK,UQ&#187;</text><text fill="#000000" font-family="sans-serif" font-size="9.3954" lengthAdjust="spacing" textLength="110.3598" x="581.8464" y="284.9429">consultation_count : int</text><text fill="#000000" font-family="sans-serif" font-size="9.3954" lengthAdjust="spacing" textLength="120.5305" x="581.8464" y="295.8798">last_updated : timestamp</text></g><!--class active_days--><g class="entity" data-entity="active_days" data-source-line="37" data-uid="ent0004" id="entity_active_days"><rect fill="#FFFFFF" height="65.0236" rx="1.6778" ry="1.6778" style="stroke:#444444;stroke-width:0.3356;" width="130.3362" x="684.5252" y="414.0706"/><ellipse cx="719.125" cy="424.8083" fill="#ADD1B2" rx="7.3821" ry="7.3821" style="stroke:#181818;stroke-width:0.6711;"/><path d="M721.8828,428.8349 L716.7028,428.8349 L716.7028,420.5195 L721.8828,420.5195 L721.8828,421.9666 L718.3491,421.9666 L718.3491,423.7597 L721.5473,423.7597 L721.5473,425.2068 L718.3491,425.2068 L718.3491,427.3878 L721.8828,427.3878 L721.8828,428.8349 Z " fill="#000000"/><text fill="#000000" font-family="sans-serif" font-size="9.3954" lengthAdjust="spacing" textLength="55.4322" x="732.8826" y="428.0609">active_days</text><line style="stroke:#444444;stroke-width:0.3356;" x1="685.1963" x2="814.1903" y1="435.5459" y2="435.5459"/><ellipse cx="691.9073" cy="444.7055" fill="#000000" rx="2.0133" ry="2.0133" style="stroke:#000000;stroke-width:0.6711;"/><text fill="#000000" font-family="sans-serif" font-size="9.3954" lengthAdjust="spacing" textLength="56.2717" x="697.9473" y="446.9514">id : int &#171;PK&#187;</text><line style="stroke:#444444;stroke-width:0.6711;" x1="685.1963" x2="814.1903" y1="451.8517" y2="451.8517"/><text fill="#000000" font-family="sans-serif" font-size="9.3954" lengthAdjust="spacing" textLength="122.283" x="688.5518" y="463.2571">email : varchar(255) &#171;FK&#187;</text><text fill="#000000" font-family="sans-serif" font-size="9.3954" lengthAdjust="spacing" textLength="84.7654" x="688.5518" y="474.194">active_date : date</text></g><!--class articles_read--><g class="entity" data-entity="articles_read" data-source-line="44" data-uid="ent0005" id="entity_articles_read"><rect fill="#FFFFFF" height="75.9605" rx="1.6778" ry="1.6778" style="stroke:#444444;stroke-width:0.3356;" width="130.3362" x="762.3732" y="542.2513"/><ellipse cx="794.475" cy="552.989" fill="#ADD1B2" rx="7.3821" ry="7.3821" style="stroke:#181818;stroke-width:0.6711;"/><path d="M797.2329,557.0156 L792.0528,557.0156 L792.0528,548.7002 L797.2329,548.7002 L797.2329,550.1473 L793.6991,550.1473 L793.6991,551.9404 L796.8973,551.9404 L796.8973,553.3875 L793.6991,553.3875 L793.6991,555.5685 L797.2329,555.5685 L797.2329,557.0156 Z " fill="#000000"/><text fill="#000000" font-family="sans-serif" font-size="9.3954" lengthAdjust="spacing" textLength="60.4281" x="808.2327" y="556.2416">articles_read</text><line style="stroke:#444444;stroke-width:0.3356;" x1="763.0443" x2="892.0383" y1="563.7266" y2="563.7266"/><ellipse cx="769.7553" cy="572.8862" fill="#000000" rx="2.0133" ry="2.0133" style="stroke:#000000;stroke-width:0.6711;"/><text fill="#000000" font-family="sans-serif" font-size="9.3954" lengthAdjust="spacing" textLength="56.2717" x="775.7952" y="575.1321">id : int &#171;PK&#187;</text><line style="stroke:#444444;stroke-width:0.6711;" x1="763.0443" x2="892.0383" y1="580.0324" y2="580.0324"/><text fill="#000000" font-family="sans-serif" font-size="9.3954" lengthAdjust="spacing" textLength="122.283" x="766.3998" y="591.4378">email : varchar(255) &#171;FK&#187;</text><text fill="#000000" font-family="sans-serif" font-size="9.3954" lengthAdjust="spacing" textLength="113.0665" x="766.3998" y="602.3747">article_id : varchar(255)</text><text fill="#000000" font-family="sans-serif" font-size="9.3954" lengthAdjust="spacing" textLength="95.3216" x="766.3998" y="613.3116">read_at : timestamp</text></g><!--class chat_history--><g class="entity" data-entity="chat_history" data-source-line="52" data-uid="ent0006" id="entity_chat_history"><rect fill="#FFFFFF" height="97.8343" rx="1.6778" ry="1.6778" style="stroke:#444444;stroke-width:0.3356;" width="177.3639" x="797.2705" y="642.9168"/><ellipse cx="854.313" cy="653.6545" fill="#ADD1B2" rx="7.3821" ry="7.3821" style="stroke:#181818;stroke-width:0.6711;"/><path d="M857.0708,657.6811 L851.8907,657.6811 L851.8907,649.3657 L857.0708,649.3657 L857.0708,650.8128 L853.537,650.8128 L853.537,652.6059 L856.7353,652.6059 L856.7353,654.0529 L853.537,654.0529 L853.537,656.234 L857.0708,656.234 L857.0708,657.6811 Z " fill="#000000"/><text fill="#000000" font-family="sans-serif" font-size="9.3954" lengthAdjust="spacing" textLength="57.5746" x="868.0706" y="656.9071">chat_history</text><line style="stroke:#444444;stroke-width:0.3356;" x1="797.9416" x2="973.9633" y1="664.3921" y2="664.3921"/><ellipse cx="804.6527" cy="673.5516" fill="#000000" rx="2.0133" ry="2.0133" style="stroke:#000000;stroke-width:0.6711;"/><text fill="#000000" font-family="sans-serif" font-size="9.3954" lengthAdjust="spacing" textLength="56.2717" x="810.6926" y="675.7976">id : int &#171;PK&#187;</text><line style="stroke:#444444;stroke-width:0.6711;" x1="797.9416" x2="973.9633" y1="680.6978" y2="680.6978"/><text fill="#000000" font-family="sans-serif" font-size="9.3954" lengthAdjust="spacing" textLength="96.2345" x="801.2972" y="692.1033">email : varchar(255)</text><text fill="#000000" font-family="sans-serif" font-size="9.3954" lengthAdjust="spacing" textLength="137.257" x="801.2972" y="703.0402">role : enum('user','assistant')</text><text fill="#000000" font-family="sans-serif" font-size="9.3954" lengthAdjust="spacing" textLength="63.8184" x="801.2972" y="713.9771">content : text</text><text fill="#000000" font-family="sans-serif" font-size="9.3954" lengthAdjust="spacing" textLength="169.3107" x="801.2972" y="724.914">mode : enum('public','consultation')</text><text fill="#000000" font-family="sans-serif" font-size="9.3954" lengthAdjust="spacing" textLength="109.9515" x="801.2972" y="735.8508">created_at : timestamp</text></g><!--class announcements--><g class="entity" data-entity="announcements" data-source-line="62" data-uid="ent0007" id="entity_announcements"><rect fill="#FFFFFF" height="130.6449" rx="1.6778" ry="1.6778" style="stroke:#444444;stroke-width:0.3356;" width="225.3366" x="4.0266" y="197.3043"/><ellipse cx="75.9743" cy="208.042" fill="#ADD1B2" rx="7.3821" ry="7.3821" style="stroke:#181818;stroke-width:0.6711;"/><path d="M78.7321,212.0686 L73.552,212.0686 L73.552,203.7532 L78.7321,203.7532 L78.7321,205.2003 L75.1983,205.2003 L75.1983,206.9934 L78.3965,206.9934 L78.3965,208.4404 L75.1983,208.4404 L75.1983,210.6215 L78.7321,210.6215 L78.7321,212.0686 Z " fill="#000000"/><text fill="#000000" font-family="sans-serif" font-size="9.3954" lengthAdjust="spacing" textLength="75.737" x="89.7319" y="211.2946">announcements</text><line style="stroke:#444444;stroke-width:0.3356;" x1="4.6977" x2="228.6922" y1="218.7796" y2="218.7796"/><ellipse cx="11.4088" cy="227.9391" fill="#000000" rx="2.0133" ry="2.0133" style="stroke:#000000;stroke-width:0.6711;"/><text fill="#000000" font-family="sans-serif" font-size="9.3954" lengthAdjust="spacing" textLength="56.2717" x="17.4487" y="230.1851">id : int &#171;PK&#187;</text><line style="stroke:#444444;stroke-width:0.6711;" x1="4.6977" x2="228.6922" y1="235.0853" y2="235.0853"/><text fill="#000000" font-family="sans-serif" font-size="9.3954" lengthAdjust="spacing" textLength="88.6924" x="8.0532" y="246.4908">title : varchar(255)</text><text fill="#000000" font-family="sans-serif" font-size="9.3954" lengthAdjust="spacing" textLength="63.8184" x="8.0532" y="257.4277">content : text</text><text fill="#000000" font-family="sans-serif" font-size="9.3954" lengthAdjust="spacing" textLength="217.2834" x="8.0532" y="268.3646">type : enum('info','warning','success','urgent')</text><text fill="#000000" font-family="sans-serif" font-size="9.3954" lengthAdjust="spacing" textLength="81.0632" x="8.0532" y="279.3015">active : tinyint(1)</text><text fill="#000000" font-family="sans-serif" font-size="9.3954" lengthAdjust="spacing" textLength="55.29" x="8.0532" y="290.2383">priority : int</text><text fill="#000000" font-family="sans-serif" font-size="9.3954" lengthAdjust="spacing" textLength="122.5399" x="8.0532" y="301.1752">created_by : varchar(255)</text><text fill="#000000" font-family="sans-serif" font-size="9.3954" lengthAdjust="spacing" textLength="101.6846" x="8.0532" y="312.1121">created_at : datetime</text><text fill="#000000" font-family="sans-serif" font-size="9.3954" lengthAdjust="spacing" textLength="100.1431" x="8.0532" y="323.049">expires_at : datetime</text></g><!--class broadcast_logs--><g class="entity" data-entity="broadcast_logs" data-source-line="75" data-uid="ent0008" id="entity_broadcast_logs"><rect fill="#FFFFFF" height="141.5818" rx="1.6778" ry="1.6778" style="stroke:#444444;stroke-width:0.3356;" width="178.2952" x="126.1674" y="375.8178"/><ellipse cx="177.106" cy="386.5554" fill="#ADD1B2" rx="7.3821" ry="7.3821" style="stroke:#181818;stroke-width:0.6711;"/><path d="M179.8638,390.582 L174.6838,390.582 L174.6838,382.2666 L179.8638,382.2666 L179.8638,383.7137 L176.3301,383.7137 L176.3301,385.5068 L179.5283,385.5068 L179.5283,386.9539 L176.3301,386.9539 L176.3301,389.135 L179.8638,389.135 L179.8638,390.582 Z " fill="#000000"/><text fill="#000000" font-family="sans-serif" font-size="9.3954" lengthAdjust="spacing" textLength="70.7136" x="190.8636" y="389.808">broadcast_logs</text><line style="stroke:#444444;stroke-width:0.3356;" x1="126.8385" x2="303.7915" y1="397.2931" y2="397.2931"/><ellipse cx="133.5495" cy="406.4526" fill="#000000" rx="2.0133" ry="2.0133" style="stroke:#000000;stroke-width:0.6711;"/><text fill="#000000" font-family="sans-serif" font-size="9.3954" lengthAdjust="spacing" textLength="56.2717" x="139.5895" y="408.6985">id : int &#171;PK&#187;</text><line style="stroke:#444444;stroke-width:0.6711;" x1="126.8385" x2="303.7915" y1="413.5988" y2="413.5988"/><text fill="#000000" font-family="sans-serif" font-size="9.3954" lengthAdjust="spacing" textLength="130.371" x="130.194" y="425.0042">admin_email : varchar(255)</text><text fill="#000000" font-family="sans-serif" font-size="9.3954" lengthAdjust="spacing" textLength="70.0713" x="130.194" y="435.9411">message : text</text><text fill="#000000" font-family="sans-serif" font-size="9.3954" lengthAdjust="spacing" textLength="74.1543" x="130.194" y="446.878">recipients : text</text><text fill="#000000" font-family="sans-serif" font-size="9.3954" lengthAdjust="spacing" textLength="94.0049" x="130.194" y="457.8149">recipient_count : int</text><text fill="#000000" font-family="sans-serif" font-size="9.3954" lengthAdjust="spacing" textLength="89.3439" x="130.194" y="468.7518">success_count : int</text><text fill="#000000" font-family="sans-serif" font-size="9.3954" lengthAdjust="spacing" textLength="66.8783" x="130.194" y="479.6887">fail_count : int</text><text fill="#000000" font-family="sans-serif" font-size="9.3954" lengthAdjust="spacing" textLength="105.8547" x="130.194" y="490.6256">fonnte_response : text</text><text fill="#000000" font-family="sans-serif" font-size="9.3954" lengthAdjust="spacing" textLength="170.242" x="130.194" y="501.5624">status : enum('sent','failed','partial')</text><text fill="#000000" font-family="sans-serif" font-size="9.3954" lengthAdjust="spacing" textLength="109.9515" x="130.194" y="512.4993">created_at : timestamp</text></g><!--class rag_documents--><g class="entity" data-entity="rag_documents" data-source-line="89" data-uid="ent0009" id="entity_rag_documents"><rect fill="#FFFFFF" height="152.5187" rx="1.6778" ry="1.6778" style="stroke:#444444;stroke-width:0.3356;" width="203.5409" x="362.0601" y="186.5667"/><ellipse cx="424.688" cy="197.3043" fill="#ADD1B2" rx="7.3821" ry="7.3821" style="stroke:#181818;stroke-width:0.6711;"/><path d="M427.4458,201.3309 L422.2658,201.3309 L422.2658,193.0156 L427.4458,193.0156 L427.4458,194.4626 L423.9121,194.4626 L423.9121,196.2557 L427.1103,196.2557 L427.1103,197.7028 L423.9121,197.7028 L423.9121,199.8839 L427.4458,199.8839 L427.4458,201.3309 Z " fill="#000000"/><text fill="#000000" font-family="sans-serif" font-size="9.3954" lengthAdjust="spacing" textLength="72.5807" x="438.4456" y="200.5569">rag_documents</text><line style="stroke:#444444;stroke-width:0.3356;" x1="362.7313" x2="564.9299" y1="208.042" y2="208.042"/><ellipse cx="369.4423" cy="217.2015" fill="#000000" rx="2.0133" ry="2.0133" style="stroke:#000000;stroke-width:0.6711;"/><text fill="#000000" font-family="sans-serif" font-size="9.3954" lengthAdjust="spacing" textLength="56.2717" x="375.4822" y="219.4475">id : int &#171;PK&#187;</text><line style="stroke:#444444;stroke-width:0.6711;" x1="362.7313" x2="564.9299" y1="224.3477" y2="224.3477"/><text fill="#000000" font-family="sans-serif" font-size="9.3954" lengthAdjust="spacing" textLength="111.2773" x="366.0868" y="235.7532">filename : varchar(255)</text><text fill="#000000" font-family="sans-serif" font-size="9.3954" lengthAdjust="spacing" textLength="136.7845" x="366.0868" y="246.69">original_name : varchar(255)</text><text fill="#000000" font-family="sans-serif" font-size="9.3954" lengthAdjust="spacing" textLength="104.3408" x="366.0868" y="257.6269">file_type : varchar(50)</text><text fill="#000000" font-family="sans-serif" font-size="9.3954" lengthAdjust="spacing" textLength="58.6114" x="366.0868" y="268.5638">file_size : int</text><text fill="#000000" font-family="sans-serif" font-size="9.3954" lengthAdjust="spacing" textLength="81.0632" x="366.0868" y="279.5007">chunk_count : int</text><text fill="#000000" font-family="sans-serif" font-size="9.3954" lengthAdjust="spacing" textLength="195.4876" x="366.0868" y="290.4376">status : enum('pending','indexed','failed')</text><text fill="#000000" font-family="sans-serif" font-size="9.3954" lengthAdjust="spacing" textLength="97.886" x="366.0868" y="301.3745">error_message : text</text><text fill="#000000" font-family="sans-serif" font-size="9.3954" lengthAdjust="spacing" textLength="130.2884" x="366.0868" y="312.3114">uploaded_by : varchar(255)</text><text fill="#000000" font-family="sans-serif" font-size="9.3954" lengthAdjust="spacing" textLength="109.9515" x="366.0868" y="323.2482">created_at : timestamp</text><text fill="#000000" font-family="sans-serif" font-size="9.3954" lengthAdjust="spacing" textLength="113.0252" x="366.0868" y="334.1851">updated_at : timestamp</text></g><!--class rag_chunks--><g class="entity" data-entity="rag_chunks" data-source-line="104" data-uid="ent0010" id="entity_rag_chunks"><rect fill="#FFFFFF" height="97.8343" rx="1.6778" ry="1.6778" style="stroke:#444444;stroke-width:0.3356;" width="118.0047" x="404.6752" y="397.6286"/><ellipse cx="434.0386" cy="408.3663" fill="#ADD1B2" rx="7.3821" ry="7.3821" style="stroke:#181818;stroke-width:0.6711;"/><path d="M436.7964,412.3929 L431.6163,412.3929 L431.6163,404.0775 L436.7964,404.0775 L436.7964,405.5246 L433.2626,405.5246 L433.2626,407.3177 L436.4608,407.3177 L436.4608,408.7647 L433.2626,408.7647 L433.2626,410.9458 L436.7964,410.9458 L436.7964,412.3929 Z " fill="#000000"/><text fill="#000000" font-family="sans-serif" font-size="9.3954" lengthAdjust="spacing" textLength="53.6476" x="447.7222" y="411.6189">rag_chunks</text><line style="stroke:#444444;stroke-width:0.3356;" x1="405.3463" x2="522.0088" y1="419.1039" y2="419.1039"/><ellipse cx="412.0573" cy="428.2634" fill="#000000" rx="2.0133" ry="2.0133" style="stroke:#000000;stroke-width:0.6711;"/><text fill="#000000" font-family="sans-serif" font-size="9.3954" lengthAdjust="spacing" textLength="56.2717" x="418.0973" y="430.5094">id : int &#171;PK&#187;</text><line style="stroke:#444444;stroke-width:0.6711;" x1="405.3463" x2="522.0088" y1="435.4096" y2="435.4096"/><text fill="#000000" font-family="sans-serif" font-size="9.3954" lengthAdjust="spacing" textLength="108.1118" x="408.7018" y="446.8151">document_id : int &#171;FK&#187;</text><text fill="#000000" font-family="sans-serif" font-size="9.3954" lengthAdjust="spacing" textLength="80.4256" x="408.7018" y="457.752">chunk_index : int</text><text fill="#000000" font-family="sans-serif" font-size="9.3954" lengthAdjust="spacing" textLength="63.8184" x="408.7018" y="468.6889">content : text</text><text fill="#000000" font-family="sans-serif" font-size="9.3954" lengthAdjust="spacing" textLength="73.3331" x="408.7018" y="479.6258">char_count : int</text><text fill="#000000" font-family="sans-serif" font-size="9.3954" lengthAdjust="spacing" textLength="109.9515" x="408.7018" y="490.5626">created_at : timestamp</text></g><!--class schema_migrations--><g class="entity" data-entity="schema_migrations" data-source-line="114" data-uid="ent0011" id="entity_schema_migrations"><rect fill="#FFFFFF" height="75.9605" rx="1.6778" ry="1.6778" style="stroke:#444444;stroke-width:0.3356;" width="148.0857" x="141.2672" y="542.2513"/><ellipse cx="167.0694" cy="552.989" fill="#ADD1B2" rx="7.3821" ry="7.3821" style="stroke:#181818;stroke-width:0.6711;"/><path d="M169.8272,557.0156 L164.6472,557.0156 L164.6472,548.7002 L169.8272,548.7002 L169.8272,550.1473 L166.2935,550.1473 L166.2935,551.9404 L169.4917,551.9404 L169.4917,553.3875 L166.2935,553.3875 L166.2935,555.5685 L169.8272,555.5685 L169.8272,557.0156 Z " fill="#000000"/><text fill="#000000" font-family="sans-serif" font-size="9.3954" lengthAdjust="spacing" textLength="91.6423" x="179.9617" y="556.2416">schema_migrations</text><line style="stroke:#444444;stroke-width:0.3356;" x1="141.9383" x2="288.6818" y1="563.7266" y2="563.7266"/><ellipse cx="148.6493" cy="572.8862" fill="#000000" rx="2.0133" ry="2.0133" style="stroke:#000000;stroke-width:0.6711;"/><text fill="#000000" font-family="sans-serif" font-size="9.3954" lengthAdjust="spacing" textLength="56.2717" x="154.6893" y="575.1321">id : int &#171;PK&#187;</text><line style="stroke:#444444;stroke-width:0.6711;" x1="141.9383" x2="288.6818" y1="580.0324" y2="580.0324"/><text fill="#000000" font-family="sans-serif" font-size="9.3954" lengthAdjust="spacing" textLength="140.0325" x="145.2938" y="591.4378">filename : varchar(255) &#171;UQ&#187;</text><text fill="#000000" font-family="sans-serif" font-size="9.3954" lengthAdjust="spacing" textLength="96.6749" x="145.2938" y="602.3747">checksum : char(64)</text><text fill="#000000" font-family="sans-serif" font-size="9.3954" lengthAdjust="spacing" textLength="117.6266" x="145.2938" y="613.3116">executed_at : timestamp</text></g><g class="link" data-entity-1="activities" data-entity-2="users" data-uid="lnk12" id="link_activities_users"><line style="stroke:#666666;stroke-width:0.6711;" x1="637.262" x2="642.9005" y1="219.703" y2="223.3423"/><line style="stroke:#666666;stroke-width:0.6711;" x1="637.262" x2="635.347" y1="219.703" y2="226.135"/><line style="stroke:#666666;stroke-width:0.6711;" x1="637.262" x2="639.1237" y1="219.703" y2="224.7387"/><ellipse cx="635.8656" cy="215.9262" fill="none" rx="2.6844" ry="2.6844" style="stroke:#666666;stroke-width:0.6711;"/><line style="stroke:#666666;stroke-width:0.6711;" x1="602.5974" x2="607.1087" y1="153.485" y2="150.5742"/><line style="stroke:#666666;stroke-width:0.6711;" x1="603.689" x2="608.2002" y1="155.1767" y2="152.2659"/><line style="stroke:#666666;stroke-width:0.6711;" x1="606.3085" x2="603.3976" y1="154.2852" y2="149.774"/><path d="M634.9348,213.4084 C627.7708,194.0314 622.127,181.6425 610.7039,161.7359 C608.4206,157.7569 608.8771,158.2662 606.3085,154.2852" fill="none" style="stroke:#666666;stroke-width:0.6711;"/><text fill="#000000" font-family="sans-serif" font-size="8.7243" lengthAdjust="spacing" textLength="64.1248" x="618.086" y="171.1762">email -&gt; email</text></g><g class="link" data-entity-1="active_days" data-entity-2="users" data-uid="lnk13" id="link_active_days_users"><line style="stroke:#666666;stroke-width:0.6711;" x1="751.2124" x2="755.052" y1="408.6164" y2="414.1205"/><line style="stroke:#666666;stroke-width:0.6711;" x1="751.2124" x2="747.0036" y1="408.6164" y2="413.8436"/><line style="stroke:#666666;stroke-width:0.6711;" x1="751.2124" x2="751.0278" y1="408.6164" y2="413.9821"/><ellipse cx="751.3508" cy="404.5922" fill="none" rx="2.6844" ry="2.6844" style="stroke:#666666;stroke-width:0.6711;"/><line style="stroke:#666666;stroke-width:0.6711;" x1="620.4166" x2="622.4755" y1="105.6711" y2="100.7128"/><line style="stroke:#666666;stroke-width:0.6711;" x1="622.276" x2="624.3349" y1="106.4432" y2="101.4849"/><line style="stroke:#666666;stroke-width:0.6711;" x1="623.9252" x2="618.9669" y1="104.2214" y2="102.1625"/><path d="M751.4431,401.9093 C753.5339,341.124 754.6086,223.6944 731.5024,186.5667 C706.1294,145.7966 664.0659,120.8896 623.9252,104.2214" fill="none" style="stroke:#666666;stroke-width:0.6711;"/><text fill="#000000" font-family="sans-serif" font-size="8.7243" lengthAdjust="spacing" textLength="64.1248" x="752.9777" y="265.8017">email -&gt; email</text></g><g class="link" data-entity-1="articles_read" data-entity-2="users" data-uid="lnk14" id="link_articles_read_users"><line style="stroke:#666666;stroke-width:0.6711;" x1="829.3837" x2="833.1828" y1="536.8128" y2="542.3449"/><line style="stroke:#666666;stroke-width:0.6711;" x1="829.3837" x2="825.1366" y1="536.8128" y2="542.009"/><line style="stroke:#666666;stroke-width:0.6711;" x1="829.3837" x2="829.1597" y1="536.8128" y2="542.177"/><ellipse cx="829.5516" cy="532.7897" fill="none" rx="2.6844" ry="2.6844" style="stroke:#666666;stroke-width:0.6711;"/><line style="stroke:#666666;stroke-width:0.6711;" x1="621.2769" x2="622.0912" y1="88.9081" y2="83.6014"/><line style="stroke:#666666;stroke-width:0.6711;" x1="623.2669" x2="624.0812" y1="89.2135" y2="83.9068"/><line style="stroke:#666666;stroke-width:0.6711;" x1="624.3374" x2="619.0307" y1="86.662" y2="85.8476"/><path d="M829.6636,530.1076 C833.5249,437.62 840.6974,215.2655 820.7592,186.5667 C775.3538,121.211 688.9294,96.5737 624.3374,86.662" fill="none" style="stroke:#666666;stroke-width:0.6711;"/><text fill="#000000" font-family="sans-serif" font-size="8.7243" lengthAdjust="spacing" textLength="64.1248" x="834.8523" y="360.4273">email -&gt; email</text></g><g class="link" data-entity-1="rag_chunks" data-entity-2="rag_documents" data-uid="lnk15" id="link_rag_chunks_rag_documents"><line style="stroke:#666666;stroke-width:0.6711;" x1="429.0972" x2="435.1486" y1="392.6823" y2="395.5838"/><line style="stroke:#666666;stroke-width:0.6711;" x1="429.0972" x2="428.0062" y1="392.6823" y2="399.3041"/><line style="stroke:#666666;stroke-width:0.6711;" x1="429.0972" x2="431.5774" y1="392.6823" y2="397.4439"/><ellipse cx="427.237" cy="389.1111" fill="none" rx="2.6844" ry="2.6844" style="stroke:#666666;stroke-width:0.6711;"/><line style="stroke:#666666;stroke-width:0.6711;" x1="414.2406" x2="419.534" y1="341.294" y2="342.1912"/><line style="stroke:#666666;stroke-width:0.6711;" x1="413.9042" x2="419.1975" y1="343.279" y2="344.1762"/><line style="stroke:#666666;stroke-width:0.6711;" x1="416.4387" x2="417.3359" y1="344.3892" y2="339.0959"/><path d="M425.9969,386.7303 C420.43,376.0427 421.064,375.195 418.0973,363.7379 C415.9867,355.5871 415.0525,352.5676 416.4387,344.3892" fill="none" style="stroke:#666666;stroke-width:0.6711;"/><text fill="#000000" font-family="sans-serif" font-size="8.7243" lengthAdjust="spacing" textLength="80.3082" x="419.4395" y="360.4273">document_id -&gt; id</text></g><g class="link" data-entity-1="chat_history" data-entity-2="users" data-uid="lnk16" id="link_chat_history_users"><line style="stroke:#666666;stroke-width:0.6711;" x1="903.382" x2="905.8992" y1="637.6886" y2="643.9097"/><line style="stroke:#666666;stroke-width:0.6711;" x1="903.382" x2="898.1146" y1="637.6886" y2="641.8471"/><line style="stroke:#666666;stroke-width:0.6711;" x1="903.382" x2="902.0069" y1="637.6886" y2="642.8784"/><ellipse cx="904.4133" cy="633.7963" fill="none" rx="2.6844" ry="2.6844" style="stroke:#666666;stroke-width:0.6711;"/><line style="stroke:#666666;stroke-width:0.6711;" x1="621.2275" x2="621.7778" y1="86.9266" y2="81.586"/><line style="stroke:#666666;stroke-width:0.6711;" x1="623.2302" x2="623.7806" y1="87.1329" y2="81.7924"/><line style="stroke:#666666;stroke-width:0.6711;" x1="624.173" x2="618.8324" y1="84.5315" y2="83.9811"/><path d="M905.1008,631.2014 C910.1618,612.1003 911.3581,601.4941 911.3581,580.8398 C911.3581,262.0658 911.3581,262.0658 911.3581,262.0658 C911.3581,132.5025 730.0654,95.4432 624.173,84.5315" fill="none" style="stroke:#666666;stroke-width:0.6711;stroke-dasharray:7.0,7.0;"/><text fill="#000000" font-family="sans-serif" font-size="8.7243" lengthAdjust="spacing" textLength="61.9309" x="912.7003" y="449.684">email (logical)</text></g><g class="link" data-entity-1="announcements" data-entity-2="users" data-uid="lnk17" id="link_announcements_users"><line style="stroke:#666666;stroke-width:0.6711;" x1="133.2651" x2="134.8674" y1="192.2195" y2="198.7365"/><line style="stroke:#666666;stroke-width:0.6711;" x1="133.2651" x2="127.4574" y1="192.2195" y2="195.5825"/><line style="stroke:#666666;stroke-width:0.6711;" x1="133.2651" x2="131.1624" y1="192.2195" y2="197.1595"/><ellipse cx="134.8421" cy="188.5146" fill="none" rx="2.6844" ry="2.6844" style="stroke:#666666;stroke-width:0.6711;"/><line style="stroke:#666666;stroke-width:0.6711;" x1="473.3278" x2="473.9095" y1="83.9678" y2="89.305"/><line style="stroke:#666666;stroke-width:0.6711;" x1="471.3263" x2="471.908" y1="84.1859" y2="89.5231"/><line style="stroke:#666666;stroke-width:0.6711;" x1="470.95" x2="476.2872" y1="86.9272" y2="86.3455"/><path d="M135.8934,186.0446 C141.5669,172.7156 144.7275,171.0447 155.6959,161.7359 C203.2693,121.3605 371.4776,97.769 470.95,86.9272" fill="none" style="stroke:#666666;stroke-width:0.6711;stroke-dasharray:7.0,7.0;"/><text fill="#000000" font-family="sans-serif" font-size="8.7243" lengthAdjust="spacing" textLength="86.3573" x="157.0381" y="171.1762">created_by (logical)</text></g><g class="link" data-entity-1="broadcast_logs" data-entity-2="users" data-uid="lnk18" id="link_broadcast_logs_users"><line style="stroke:#666666;stroke-width:0.6711;" x1="229.9029" x2="232.8833" y1="370.4755" y2="376.4884"/><line style="stroke:#666666;stroke-width:0.6711;" x1="229.9029" x2="224.965" y1="370.4755" y2="375.0204"/><line style="stroke:#666666;stroke-width:0.6711;" x1="229.9029" x2="228.9242" y1="370.4755" y2="375.7544"/><ellipse cx="230.6369" cy="366.5164" fill="none" rx="2.6844" ry="2.6844" style="stroke:#666666;stroke-width:0.6711;"/><line style="stroke:#666666;stroke-width:0.6711;" x1="473.128" x2="473.9284" y1="83.7549" y2="89.0637"/><line style="stroke:#666666;stroke-width:0.6711;" x1="471.1372" x2="471.9376" y1="84.055" y2="89.3638"/><line style="stroke:#666666;stroke-width:0.6711;" x1="470.8738" x2="476.1826" y1="86.8095" y2="86.0091"/><path d="M231.1262,363.8769 C233.4011,351.6061 233.4907,350.8313 235.5572,338.9071 C247.2631,271.3609 216.2891,239.6094 259.7169,186.5667 C312.9231,121.5807 404.3271,96.8419 470.8738,86.8095" fill="none" style="stroke:#666666;stroke-width:0.6711;stroke-dasharray:7.0,7.0;"/><text fill="#000000" font-family="sans-serif" font-size="8.7243" lengthAdjust="spacing" textLength="93.629" x="261.0591" y="265.8017">admin_email (logical)</text></g><g class="link" data-entity-1="rag_documents" data-entity-2="users" data-uid="lnk19" id="link_rag_documents_users"><line style="stroke:#666666;stroke-width:0.6711;" x1="487.5896" x2="489.5049" y1="181.4561" y2="187.888"/><line style="stroke:#666666;stroke-width:0.6711;" x1="487.5896" x2="481.9512" y1="181.4561" y2="185.0957"/><line style="stroke:#666666;stroke-width:0.6711;" x1="487.5896" x2="485.7281" y1="181.4561" y2="186.4918"/><ellipse cx="488.9858" cy="177.6793" fill="none" rx="2.6844" ry="2.6844" style="stroke:#666666;stroke-width:0.6711;"/><line style="stroke:#666666;stroke-width:0.6711;" x1="498.2907" x2="503.0389" y1="150.864" y2="153.3698"/><line style="stroke:#666666;stroke-width:0.6711;" x1="497.3511" x2="502.0993" y1="152.6446" y2="155.1503"/><line style="stroke:#666666;stroke-width:0.6711;" x1="499.412" x2="501.9177" y1="154.491" y2="149.7428"/><path d="M489.9166,175.1614 C493.048,166.6906 492.276,169.6129 495.9452,161.7359 C497.796,157.7627 497.298,158.4968 499.412,154.491" fill="none" style="stroke:#666666;stroke-width:0.6711;stroke-dasharray:7.0,7.0;"/><text fill="#000000" font-family="sans-serif" font-size="8.7243" lengthAdjust="spacing" textLength="93.5524" x="497.2874" y="171.1762">uploaded_by (logical)</text></g><!--SRC=[fLPHSnid47w_Nq7J1qaTNyPMOZVrP3pZf7MISPmqJVlKwTpWOwrZn043d2MbyN_l0gU8GxAIk7gmkMLPbk_xTk47RUYifKJGbUeSiIquAcan8gz0Wg4E6BangYM2tmAvMdtyy9ROkW5SeIIP7avFoiCdvT7FHSCP45pSA6RZXtLWGBcL1biufObJv5evXx4ODr0xhcHXQofm6LsINvuTaWLdhYdid4jD3VLxIl3hYJ8ODvcGYe45JOwU9KP3vTmRfzF4M0jgBVct8EG5hUSpeph9NYgX35aqt07QpurHYsZwyIJylBCo34nlVHf-nLrHW7JShSYZpeAnZmYr98n2_9y8P-IKSEd8y-U_NvwTeQqiyGzYnGNEt59JDzICfyV74tJvwqDmaRI5R1Ajkb4oDHyVUklSwSJsP1eyyNmBp7P73ADkk82AjtJcOmabPmwM3gUC4ju2icl78qqTnuED3aQoCnP6Vcrjm5DVKOTkZhTW7MqrJdIQxPf8iA78x2t7a16WpUU3KBguFEY1gfMqdN3KwwQgaKSNu-0KSkogFhEzQK75w2h9Atu_CB7WyYMCyu3wVuDDZUEr05iXd2nkcrh-ryOnKCLtCEzZxs48NLtLSEkKMOMaKiFtvvJhoPS4YWbrYH4f2ciIsNCGAEibs689RoJONGjUuwAKv7r2J36M4iLGGuk6djhKilyy64BiAB-jR4CNMcVBvOt2N1VKI2vdEB9TNOErEEhC3FeJHsM4hEKATnuVnQBaolYyrzfT7_1wjIEDzF1UMnu0py9IOmUrcJt1vDeeocfV5KBD8YX3qtvKA6kvhExX6YcmiQ6icmdKNFE0zROjgzGUgSnwWnlb9YMH0gmIgr4IoMx8l-li5ovix5m-0Z0SQ5yNL7oZTl3ggvYgkurs1fRzAFdckhjx8yCpBgceTa-7hjmhQjZWmupbds0ZZwQJynp48GGQ98iwv9B1Ci3Gu-5Z0jvlfjfYhTC21V4jmlk-zky134bly8oV-y5SOrubytsdYn24isrWoGlKPv_1z7NwuqEcQldCX8uJKzwoFaW6cniUmzLpsxNe46PFdWPQbb1tkzCRaOjBh20HTs-ujl49zkRTnVi_hix_VFF-NVNnvUlVhiwBv7QzKsNv-NF_83djEtLv5WT5UjrznNDmG-ttJTZj7OVrSphW5PTnve_tLiquFlp8c6gDVJ-SinHm2s8oFFS1llJ8hoyy7lvcS8PwQWVNrPrw_7WhmR68EqoAuLsGEIUzTxCYQvJPahGrRjOCJvqjIIjjimHXUCqP0-bVkOWVlexdWA_N_XrUgrOZPxW02vSqs54-eUGHCwizBvCYHY__RaAGVvXQo39vRANAsEKKfJ2GHUwMwY1JHUQQ4bBSardAGyPAvZeau9vu0yGp_7UuHf4MERcPvrRb5_y1]--></g></svg>